<svg xmlns="http://www.w3.org/2000/svg" width="20" height="20" fill="none"><path fill="#532753" d="M18.333 4.905v10.19c0 1.418 0 2.127-.452 2.36-.452.232-1.029-.18-2.183-1.004l-1.318-.942c-.513-.366-.77-.55-.908-.819-.139-.269-.139-.584-.139-1.215v-6.95c0-.631 0-.947.139-1.216s.395-.452.908-.819l1.318-.941c1.154-.825 1.731-1.237 2.183-1.004.452.232.452.942.452 2.36m-16.666 0v10.19c0 1.418 0 2.127.452 2.36.452.232 1.029-.18 2.183-1.004l1.318-.942c.513-.366.77-.55.908-.819.139-.269.139-.584.139-1.215v-6.95c0-.631 0-.947-.139-1.216-.138-.269-.395-.452-.908-.819l-1.318-.94C3.148 2.724 2.571 2.312 2.12 2.545c-.452.232-.452.942-.452 2.36z" opacity=".5"/><path fill="#532753" fill-rule="evenodd" d="M10 18.959a.625.625 0 0 1-.625-.625V15a.625.625 0 1 1 1.25 0v3.334c0 .345-.28.625-.625.625m0-6.667a.625.625 0 0 1-.625-.625V8.334a.625.625 0 1 1 1.25 0v3.333c0 .345-.28.625-.625.625m0-6.667A.625.625 0 0 1 9.375 5V1.667a.625.625 0 1 1 1.25 0V5c0 .346-.28.625-.625.625" clip-rule="evenodd"/></svg>